<?xml version="1.0" encoding="UTF-8"?>
<svg xmlns="http://www.w3.org/2000/svg" xmlns:xlink="http://www.w3.org/1999/xlink" width="60pt" height="59pt" viewBox="0 0 60 59" version="1.1">
<g id="surface1">
<path style=" stroke:none;fill-rule:nonzero;fill:rgb(92.941176%,73.333333%,59.607843%);fill-opacity:1;" d="M 31.148438 48.570312 L 28.492188 48.570312 C 26.242188 48.570312 24.410156 46.773438 24.410156 44.5625 L 24.410156 38.746094 C 24.410156 36.542969 26.242188 34.742188 28.492188 34.742188 L 31.148438 34.742188 C 33.398438 34.742188 35.222656 36.542969 35.222656 38.746094 L 35.222656 44.5625 C 35.222656 46.773438 33.40625 48.570312 31.148438 48.570312 Z M 31.148438 48.570312 "/>
<path style=" stroke:none;fill-rule:nonzero;fill:rgb(90.196078%,90.196078%,90.196078%);fill-opacity:1;" d="M 35.222656 44.457031 L 35.222656 44.546875 C 35.222656 46.761719 33.398438 48.554688 31.148438 48.554688 L 28.492188 48.554688 C 26.242188 48.554688 24.410156 46.761719 24.410156 44.546875 L 24.410156 44.457031 C 15.914062 46.265625 9.300781 51.824219 7.523438 58.617188 C 7.503906 58.710938 18.785156 58.617188 29.816406 58.617188 C 40.855469 58.617188 52.136719 58.710938 52.109375 58.617188 C 50.335938 51.824219 43.71875 46.265625 35.222656 44.457031 Z M 35.222656 44.457031 "/>
<path style=" stroke:none;fill-rule:nonzero;fill:rgb(95.686275%,77.254902%,63.529412%);fill-opacity:1;" d="M 46.25 28.789062 C 46.734375 26.59375 45.816406 24.53125 44.203125 24.1875 C 42.585938 23.84375 40.882812 25.34375 40.394531 27.539062 C 39.910156 29.730469 40.828125 31.792969 42.445312 32.132812 C 44.058594 32.480469 45.761719 30.980469 46.25 28.789062 Z M 46.25 28.789062 "/>
<path style=" stroke:none;fill-rule:nonzero;fill:rgb(95.686275%,77.254902%,63.529412%);fill-opacity:1;" d="M 13.921875 29.042969 C 14.402344 31.246094 16.105469 32.742188 17.726562 32.398438 C 19.34375 32.050781 20.253906 29.992188 19.773438 27.792969 C 19.289062 25.601562 17.585938 24.101562 15.96875 24.449219 C 14.347656 24.796875 13.4375 26.851562 13.921875 29.042969 Z M 13.921875 29.042969 "/>
<path style=" stroke:none;fill-rule:nonzero;fill:rgb(95.686275%,77.254902%,63.529412%);fill-opacity:1;" d="M 42.972656 27.910156 C 42.972656 19.765625 37.21875 13.167969 30.121094 13.167969 C 23.023438 13.167969 17.273438 19.765625 17.273438 27.910156 C 17.273438 36.054688 23.023438 42.65625 30.121094 42.65625 C 37.21875 42.65625 42.972656 36.054688 42.972656 27.910156 Z M 42.972656 27.910156 "/>
<path style=" stroke:none;fill-rule:nonzero;fill:rgb(20%,20%,20%);fill-opacity:1;" d="M 32.253906 25.265625 C 32.546875 24.75 33.011719 24.355469 33.53125 24.074219 C 34.058594 23.785156 34.664062 23.625 35.28125 23.601562 C 35.59375 23.582031 35.902344 23.636719 36.214844 23.695312 C 36.519531 23.785156 36.808594 23.867188 37.074219 24.027344 C 37.351562 24.167969 37.585938 24.363281 37.800781 24.554688 C 37.914062 24.644531 38 24.773438 38.09375 24.886719 C 38.171875 25.003906 38.265625 25.128906 38.339844 25.253906 C 38.03125 25.195312 37.785156 25.082031 37.519531 25.023438 C 37.253906 24.964844 37.019531 24.875 36.761719 24.839844 C 36.515625 24.78125 36.273438 24.773438 36.042969 24.722656 C 35.796875 24.722656 35.5625 24.691406 35.316406 24.714844 C 34.835938 24.722656 34.351562 24.78125 33.851562 24.886719 C 33.34375 24.992188 32.824219 25.117188 32.253906 25.265625 Z M 32.253906 25.265625 "/>
<path style=" stroke:none;fill-rule:nonzero;fill:rgb(20%,20%,20%);fill-opacity:1;" d="M 36.847656 28.71875 C 36.847656 29.554688 36.148438 30.234375 35.296875 30.234375 C 34.4375 30.234375 33.746094 29.554688 33.746094 28.71875 C 33.746094 27.871094 34.4375 27.191406 35.296875 27.191406 C 36.148438 27.191406 36.847656 27.871094 36.847656 28.71875 Z M 36.847656 28.71875 "/>
<path style=" stroke:none;fill-rule:nonzero;fill:rgb(94.901961%,94.901961%,94.901961%);fill-opacity:1;" d="M 35.933594 27.605469 C 35.933594 27.8125 35.761719 27.984375 35.550781 27.984375 C 35.335938 27.984375 35.167969 27.8125 35.167969 27.605469 C 35.167969 27.394531 35.335938 27.222656 35.550781 27.222656 C 35.761719 27.222656 35.933594 27.394531 35.933594 27.605469 Z M 35.933594 27.605469 "/>
<path style=" stroke:none;fill-rule:nonzero;fill:rgb(20%,20%,20%);fill-opacity:1;" d="M 21.3125 25.265625 C 21.601562 24.75 22.066406 24.355469 22.59375 24.074219 C 23.117188 23.785156 23.722656 23.625 24.34375 23.601562 C 24.65625 23.582031 24.960938 23.636719 25.273438 23.695312 C 25.574219 23.785156 25.867188 23.867188 26.132812 24.027344 C 26.414062 24.167969 26.648438 24.363281 26.859375 24.554688 C 26.972656 24.644531 27.058594 24.773438 27.152344 24.886719 C 27.234375 25.003906 27.324219 25.128906 27.390625 25.253906 C 27.09375 25.195312 26.847656 25.082031 26.582031 25.023438 C 26.308594 24.964844 26.074219 24.875 25.820312 24.839844 C 25.574219 24.78125 25.328125 24.773438 25.101562 24.722656 C 24.855469 24.722656 24.621094 24.691406 24.375 24.714844 C 23.898438 24.722656 23.410156 24.78125 22.910156 24.886719 C 22.40625 24.992188 21.894531 25.117188 21.3125 25.265625 Z M 21.3125 25.265625 "/>
<path style=" stroke:none;fill-rule:nonzero;fill:rgb(20%,20%,20%);fill-opacity:1;" d="M 25.902344 28.71875 C 25.902344 29.554688 25.207031 30.234375 24.355469 30.234375 C 23.496094 30.234375 22.804688 29.554688 22.804688 28.71875 C 22.804688 27.871094 23.496094 27.191406 24.355469 27.191406 C 25.207031 27.191406 25.902344 27.871094 25.902344 28.71875 Z M 25.902344 28.71875 "/>
<path style=" stroke:none;fill-rule:nonzero;fill:rgb(94.901961%,94.901961%,94.901961%);fill-opacity:1;" d="M 24.996094 27.605469 C 24.996094 27.8125 24.824219 27.984375 24.609375 27.984375 C 24.394531 27.984375 24.222656 27.8125 24.222656 27.605469 C 24.222656 27.394531 24.394531 27.222656 24.609375 27.222656 C 24.824219 27.222656 24.996094 27.394531 24.996094 27.605469 Z M 24.996094 27.605469 "/>
<path style=" stroke:none;fill-rule:nonzero;fill:rgb(95.686275%,64.705882%,43.137255%);fill-opacity:1;" d="M 27.71875 32.296875 C 28.136719 32.402344 28.496094 32.507812 28.863281 32.574219 C 29.222656 32.644531 29.5625 32.679688 29.894531 32.679688 C 30.234375 32.679688 30.574219 32.652344 30.929688 32.574219 C 31.113281 32.554688 31.273438 32.480469 31.472656 32.449219 C 31.660156 32.402344 31.847656 32.332031 32.066406 32.285156 C 31.960938 32.476562 31.832031 32.644531 31.695312 32.789062 C 31.535156 32.925781 31.382812 33.078125 31.179688 33.183594 C 30.808594 33.410156 30.34375 33.515625 29.902344 33.503906 C 29.445312 33.503906 29.003906 33.378906 28.632812 33.167969 C 28.246094 32.964844 27.917969 32.679688 27.71875 32.296875 Z M 27.71875 32.296875 "/>
<path style=" stroke:none;fill-rule:nonzero;fill:rgb(95.686275%,64.705882%,43.137255%);fill-opacity:1;" d="M 35.078125 34.511719 C 34.757812 34.910156 34.464844 35.316406 34.105469 35.691406 C 33.929688 35.875 33.730469 36.054688 33.5 36.207031 C 33.277344 36.359375 33.046875 36.457031 32.8125 36.546875 C 32.332031 36.742188 31.847656 36.835938 31.367188 36.925781 C 30.882812 37.007812 30.390625 37.03125 29.910156 37.066406 L 29.875 37.066406 C 29.398438 37.046875 28.910156 37.007812 28.417969 36.925781 C 27.933594 36.847656 27.4375 36.742188 26.972656 36.546875 C 26.738281 36.457031 26.5 36.34375 26.289062 36.207031 C 26.066406 36.054688 25.867188 35.886719 25.679688 35.691406 C 25.335938 35.316406 25.027344 34.898438 24.714844 34.511719 C 25.136719 34.773438 25.523438 35.105469 25.902344 35.382812 C 26.101562 35.519531 26.300781 35.644531 26.5 35.722656 C 26.707031 35.8125 26.914062 35.886719 27.140625 35.945312 C 27.578125 36.042969 28.03125 36.128906 28.496094 36.160156 C 28.964844 36.207031 29.429688 36.234375 29.910156 36.253906 L 29.875 36.253906 C 30.355469 36.238281 30.820312 36.207031 31.289062 36.175781 C 31.753906 36.140625 32.207031 36.054688 32.652344 35.957031 C 32.871094 35.898438 33.078125 35.828125 33.292969 35.734375 C 33.492188 35.65625 33.683594 35.53125 33.882812 35.394531 C 34.277344 35.121094 34.648438 34.773438 35.078125 34.511719 Z M 35.078125 34.511719 "/>
<path style=" stroke:none;fill-rule:nonzero;fill:rgb(24.705882%,15.686275%,12.54902%);fill-opacity:1;" d="M 15.085938 24.855469 C 15.085938 24.855469 15.242188 16.800781 16.84375 14.324219 C 16.84375 14.324219 20.101562 9.808594 25.902344 7.359375 C 26.648438 7.046875 30.714844 4.320312 31.945312 1.847656 C 31.945312 1.847656 32.132812 3.699219 30.761719 5.191406 C 32.285156 4.007812 33.746094 2.121094 34.421875 -0.0117188 C 34.421875 -0.0117188 39.523438 4.640625 39.816406 7.699219 C 39.816406 7.699219 45.921875 13.015625 44.199219 24.171875 L 42.113281 27.210938 C 42.113281 27.210938 40.488281 20.007812 38.324219 17.441406 C 38.324219 17.441406 28.457031 14.546875 21.847656 18.164062 C 21.847656 18.164062 18.003906 21.574219 18.15625 25.941406 C 18.152344 25.96875 17.351562 24.460938 15.085938 24.855469 Z M 15.085938 24.855469 "/>
<path style=" stroke:none;fill-rule:nonzero;fill:rgb(28.627451%,77.647059%,94.901961%);fill-opacity:1;" d="M 24.421875 44.5625 L 24.421875 44.457031 C 15.925781 46.265625 9.308594 51.824219 7.539062 58.617188 C 7.515625 58.710938 18.710938 58.617188 29.722656 58.617188 L 25.449219 47.207031 C 24.808594 46.507812 24.421875 45.582031 24.421875 44.5625 Z M 24.421875 44.5625 "/>
<path style=" stroke:none;fill-rule:nonzero;fill:rgb(28.627451%,77.647059%,94.901961%);fill-opacity:1;" d="M 35.234375 44.5625 L 35.234375 44.457031 C 43.730469 46.265625 50.351562 51.824219 52.121094 58.617188 C 52.140625 58.710938 40.949219 58.617188 29.9375 58.617188 L 34.199219 47.207031 C 34.851562 46.507812 35.234375 45.582031 35.234375 44.5625 Z M 35.234375 44.5625 "/>
</g>
</svg>
