<?xml version="1.0" encoding="UTF-8"?>
<svg xmlns="http://www.w3.org/2000/svg" xmlns:xlink="http://www.w3.org/1999/xlink" width="15pt" height="14pt" viewBox="0 0 15 14" version="1.1">
<g id="surface1">
<path style=" stroke:none;fill-rule:nonzero;fill:rgb(0%,0%,0%);fill-opacity:1;" d="M 5.46875 5.320312 C 5.648438 5.339844 5.75 5.550781 5.621094 5.691406 C 4.4375 6.851562 3.25 8.003906 2.074219 9.171875 C 1.746094 9.503906 1.757812 10.070312 2.101562 10.394531 C 2.441406 10.703125 2.78125 11.011719 3.125 11.316406 C 3.476562 11.621094 4.070312 11.625 4.425781 11.292969 C 5.617188 10.132812 6.800781 8.972656 7.980469 7.800781 C 8.308594 7.464844 8.300781 6.898438 7.945312 6.570312 C 7.945312 6.570312 7.867188 6.484375 7.875 6.398438 C 7.886719 6.21875 8.136719 6.121094 8.328125 6.3125 C 8.792969 6.792969 8.816406 7.59375 8.320312 8.101562 C 7.140625 9.273438 5.953125 10.4375 4.757812 11.597656 C 4.25 12.078125 3.363281 12.117188 2.808594 11.636719 C 2.171875 11.070312 1.394531 10.550781 1.359375 9.832031 C 1.34375 9.480469 1.480469 9.132812 1.734375 8.875 C 1.734375 8.875 5.285156 5.386719 5.285156 5.386719 C 5.285156 5.386719 5.386719 5.320312 5.46875 5.320312 Z M 11.238281 2.007812 C 12 2.027344 12.578125 2.722656 13.203125 3.292969 C 13.714844 3.773438 13.753906 4.621094 13.234375 5.136719 L 9.691406 8.613281 C 9.539062 8.746094 9.472656 8.691406 9.394531 8.640625 C 9.28125 8.570312 9.265625 8.40625 9.355469 8.308594 C 10.539062 7.148438 11.730469 5.996094 12.90625 4.828125 C 13.230469 4.496094 13.222656 3.929688 12.878906 3.605469 C 12.347656 3.121094 11.855469 2.457031 11.234375 2.445312 C 10.980469 2.441406 10.734375 2.539062 10.554688 2.707031 C 9.363281 3.867188 8.175781 5.027344 7 6.199219 C 6.671875 6.535156 6.671875 7.097656 7.035156 7.429688 C 7.035156 7.429688 7.179688 7.671875 6.992188 7.773438 C 6.53125 8.027344 5.910156 6.660156 6.660156 5.898438 C 7.839844 4.726562 9.027344 3.5625 10.222656 2.402344 C 10.488281 2.148438 10.863281 2.007812 11.238281 2.007812 Z M 11.238281 2.007812 "/>
</g>
</svg>
