<?xml version="1.0" encoding="UTF-8"?>
<svg xmlns="http://www.w3.org/2000/svg" xmlns:xlink="http://www.w3.org/1999/xlink" width="15pt" height="15pt" viewBox="0 0 15 15" version="1.1">
<g id="surface1">
<path style=" stroke:none;fill-rule:nonzero;fill:rgb(18.823529%,23.529412%,25.882353%);fill-opacity:1;" d="M 6.875 8.75 C 6.875 8.058594 6.316406 7.5 5.625 7.5 C 4.933594 7.5 4.375 8.058594 4.375 8.75 C 4.375 8.921875 4.515625 9.0625 4.6875 9.0625 C 4.859375 9.0625 5 8.921875 5 8.75 C 5 8.40625 5.28125 8.125 5.625 8.125 C 5.96875 8.125 6.25 8.40625 6.25 8.75 C 6.25 9.078125 6.132812 9.394531 5.917969 9.644531 L 4.449219 11.355469 C 4.335938 11.484375 4.347656 11.683594 4.480469 11.796875 C 4.535156 11.847656 4.609375 11.875 4.6875 11.875 L 6.5625 11.875 C 6.734375 11.875 6.875 11.734375 6.875 11.5625 C 6.875 11.390625 6.734375 11.25 6.5625 11.25 L 5.367188 11.25 L 6.394531 10.050781 C 6.703125 9.6875 6.875 9.226562 6.875 8.75 Z M 6.875 8.75 "/>
<path style=" stroke:none;fill-rule:nonzero;fill:rgb(18.823529%,23.529412%,25.882353%);fill-opacity:1;" d="M 9.6875 8.125 C 9.859375 8.125 10 7.984375 10 7.8125 C 10 7.640625 9.859375 7.5 9.6875 7.5 L 8.125 7.5 C 7.972656 7.5 7.84375 7.613281 7.820312 7.761719 L 7.507812 9.636719 C 7.476562 9.808594 7.585938 9.96875 7.757812 10 C 7.859375 10.019531 7.964844 9.988281 8.039062 9.914062 C 8.195312 9.761719 8.40625 9.683594 8.625 9.695312 C 9.039062 9.695312 9.371094 10.03125 9.375 10.445312 L 9.375 10.625 C 9.375 10.96875 9.09375 11.25 8.75 11.25 C 8.40625 11.25 8.125 10.96875 8.125 10.625 C 8.125 10.453125 7.984375 10.3125 7.8125 10.3125 C 7.640625 10.3125 7.5 10.453125 7.5 10.625 C 7.5 11.316406 8.058594 11.875 8.75 11.875 C 9.441406 11.875 10 11.316406 10 10.625 L 10 10.445312 C 9.972656 9.652344 9.308594 9.035156 8.519531 9.066406 C 8.417969 9.070312 8.320312 9.082031 8.226562 9.105469 L 8.386719 8.125 Z M 9.6875 8.125 "/>
<path style=" stroke:none;fill-rule:nonzero;fill:rgb(18.823529%,23.529412%,25.882353%);fill-opacity:1;" d="M 13.125 1.875 L 11.5625 1.875 C 11.390625 1.875 11.25 2.015625 11.25 2.1875 L 11.25 3.75 C 11.25 4.09375 10.972656 4.375 10.628906 4.378906 C 10.28125 4.378906 10 4.101562 10 3.753906 C 10 3.488281 10.167969 3.25 10.417969 3.164062 C 10.542969 3.117188 10.625 3 10.625 2.867188 L 10.625 0.9375 C 10.625 0.765625 10.484375 0.625 10.3125 0.625 C 10.140625 0.625 10 0.765625 10 0.9375 L 10 1.875 L 5.3125 1.875 C 5.140625 1.875 5 2.015625 5 2.1875 L 5 3.75 C 5 4.09375 4.722656 4.375 4.378906 4.378906 C 4.03125 4.378906 3.75 4.101562 3.75 3.753906 C 3.75 3.488281 3.917969 3.25 4.167969 3.164062 C 4.292969 3.117188 4.375 3 4.375 2.867188 L 4.375 0.9375 C 4.375 0.765625 4.234375 0.625 4.0625 0.625 C 3.890625 0.625 3.75 0.765625 3.75 0.9375 L 3.75 1.875 L 1.875 1.875 C 1.183594 1.875 0.625 2.433594 0.625 3.125 L 0.625 13.125 C 0.625 13.816406 1.183594 14.375 1.875 14.375 L 10.804688 14.375 C 10.972656 14.375 11.132812 14.3125 11.25 14.195312 L 14.195312 11.25 C 14.3125 11.132812 14.375 10.972656 14.375 10.804688 L 14.375 3.125 C 14.375 2.433594 13.816406 1.875 13.125 1.875 Z M 1.875 13.125 L 1.875 5.625 L 13.125 5.625 L 13.125 10.550781 L 13.050781 10.625 L 11.875 10.625 C 11.183594 10.625 10.625 11.183594 10.625 11.875 L 10.625 13.050781 L 10.550781 13.125 Z M 1.875 13.125 "/>
</g>
</svg>
