<?xml version="1.0" encoding="UTF-8"?>
<svg xmlns="http://www.w3.org/2000/svg" xmlns:xlink="http://www.w3.org/1999/xlink" width="11pt" height="14pt" viewBox="0 0 11 14" version="1.1">
<g id="surface1">
<path style=" stroke:none;fill-rule:nonzero;fill:rgb(30.588235%,30.588235%,31.372549%);fill-opacity:1;" d="M 5.5 7 C 2.464844 7 0 9.351562 0 12.25 C 0 13.21875 0.820312 14 1.832031 14 L 9.167969 14 C 10.179688 14 11 13.21875 11 12.25 C 11 9.351562 8.535156 7 5.5 7 Z M 5.5 7 "/>
<path style=" stroke:none;fill-rule:nonzero;fill:rgb(30.588235%,30.588235%,31.372549%);fill-opacity:1;" d="M 8.25 2.625 C 8.25 4.074219 7.019531 5.25 5.5 5.25 C 3.980469 5.25 2.75 4.074219 2.75 2.625 C 2.75 1.175781 3.980469 0 5.5 0 C 7.019531 0 8.25 1.175781 8.25 2.625 Z M 8.25 2.625 "/>
</g>
</svg>
