<?xml version="1.0" encoding="UTF-8"?>
<svg xmlns="http://www.w3.org/2000/svg" xmlns:xlink="http://www.w3.org/1999/xlink" width="15pt" height="15pt" viewBox="0 0 15 15" version="1.1">
<g id="surface1">
<path style=" stroke:none;fill-rule:nonzero;fill:rgb(0%,0%,0%);fill-opacity:1;" d="M 13.800781 0 L 1.199219 0 C 0.539062 0 0 0.539062 0 1.199219 L 0 13.800781 C 0 14.460938 0.539062 15 1.199219 15 L 13.800781 15 C 14.460938 15 15 14.460938 15 13.800781 L 15 1.199219 C 15 0.539062 14.460938 0 13.800781 0 Z M 14.699219 13.800781 C 14.699219 14.296875 14.296875 14.699219 13.800781 14.699219 L 1.199219 14.699219 C 0.703125 14.699219 0.300781 14.296875 0.300781 13.800781 L 0.300781 1.199219 C 0.300781 0.703125 0.703125 0.300781 1.199219 0.300781 L 13.800781 0.300781 C 14.296875 0.300781 14.699219 0.703125 14.699219 1.199219 Z M 14.699219 13.800781 "/>
<path style=" stroke:none;fill-rule:nonzero;fill:rgb(0%,0%,0%);fill-opacity:1;" d="M 7.5 3 C 5.015625 3 3 5.015625 3 7.5 C 3 9.984375 5.015625 12 7.5 12 C 9.984375 12 12 9.984375 12 7.5 C 12 5.015625 9.984375 3 7.5 3 Z M 7.5 11.699219 C 5.183594 11.699219 3.300781 9.816406 3.300781 7.5 C 3.300781 5.183594 5.183594 3.300781 7.5 3.300781 C 9.816406 3.300781 11.699219 5.183594 11.699219 7.5 C 11.699219 9.816406 9.816406 11.699219 7.5 11.699219 Z M 7.5 11.699219 "/>
<path style=" stroke:none;fill-rule:nonzero;fill:rgb(0%,0%,0%);fill-opacity:1;" d="M 7.5 4.050781 C 5.59375 4.050781 4.050781 5.59375 4.050781 7.5 C 4.050781 9.40625 5.59375 10.949219 7.5 10.949219 C 9.40625 10.949219 10.949219 9.40625 10.949219 7.5 C 10.949219 5.59375 9.40625 4.050781 7.5 4.050781 Z M 7.5 10.648438 C 5.761719 10.648438 4.351562 9.238281 4.351562 7.5 C 4.351562 5.761719 5.761719 4.351562 7.5 4.351562 C 9.238281 4.351562 10.648438 5.761719 10.648438 7.5 C 10.648438 9.238281 9.238281 10.648438 7.5 10.648438 Z M 7.5 10.648438 "/>
<path style=" stroke:none;fill-rule:nonzero;fill:rgb(0%,0%,0%);fill-opacity:1;" d="M 12.75 1.351562 C 12.253906 1.351562 11.851562 1.753906 11.851562 2.25 C 11.851562 2.746094 12.253906 3.148438 12.75 3.148438 C 13.246094 3.148438 13.648438 2.746094 13.648438 2.25 C 13.648438 1.753906 13.246094 1.351562 12.75 1.351562 Z M 12.75 2.851562 C 12.417969 2.851562 12.148438 2.582031 12.148438 2.25 C 12.148438 1.917969 12.417969 1.648438 12.75 1.648438 C 13.082031 1.648438 13.351562 1.917969 13.351562 2.25 C 13.351562 2.582031 13.082031 2.851562 12.75 2.851562 Z M 12.75 2.851562 "/>
</g>
</svg>
