<?xml version="1.0" encoding="UTF-8"?>
<svg xmlns="http://www.w3.org/2000/svg" xmlns:xlink="http://www.w3.org/1999/xlink" width="15pt" height="15pt" viewBox="0 0 15 15" version="1.1">
<g id="surface1">
<path style=" stroke:none;fill-rule:evenodd;fill:rgb(20%,20%,20%);fill-opacity:1;" d="M 7.5 8.320312 C 9.050781 8.320312 10.3125 7.054688 10.3125 5.507812 C 10.3125 3.957031 9.050781 2.695312 7.5 2.695312 C 5.949219 2.695312 4.6875 3.953125 4.6875 5.507812 C 4.6875 7.058594 5.949219 8.320312 7.5 8.320312 Z M 7.5 3.164062 C 8.792969 3.164062 9.84375 4.214844 9.84375 5.507812 C 9.84375 6.796875 8.792969 7.851562 7.5 7.851562 C 6.207031 7.851562 5.15625 6.796875 5.15625 5.507812 C 5.15625 4.214844 6.207031 3.164062 7.5 3.164062 Z M 7.5 3.164062 "/>
<path style=" stroke:none;fill-rule:evenodd;fill:rgb(20%,20%,20%);fill-opacity:1;" d="M 7.5 0 C 4.398438 0 1.875 2.492188 1.875 5.625 C 1.875 8.90625 4.6875 12.261719 6.738281 14.621094 C 6.746094 14.632812 7.074219 15 7.480469 15 C 7.484375 15 7.515625 15 7.519531 15 C 7.925781 15 8.253906 14.632812 8.261719 14.621094 C 10.3125 12.261719 13.125 8.90625 13.125 5.625 C 13.125 2.492188 10.601562 0 7.5 0 Z M 7.554688 14.007812 C 7.546875 14.015625 7.515625 14.039062 7.492188 14.054688 C 7.488281 14.039062 7.453125 14.011719 7.429688 13.992188 C 5.714844 12.015625 2.8125 8.679688 2.8125 5.625 C 2.8125 3.039062 4.914062 0.9375 7.5 0.9375 C 10.085938 0.9375 12.1875 3.039062 12.1875 5.625 C 12.1875 8.679688 9.289062 12.015625 7.554688 14.007812 Z M 7.554688 14.007812 "/>
</g>
</svg>
