<?xml version="1.0" encoding="UTF-8"?>
<svg xmlns="http://www.w3.org/2000/svg" xmlns:xlink="http://www.w3.org/1999/xlink" width="35pt" height="35pt" viewBox="0 0 35 35" version="1.1">
<g id="surface1">
<path style=" stroke:none;fill-rule:nonzero;fill:rgb(29.019608%,62.745098%,92.54902%);fill-opacity:1;" d="M 17.390625 14.46875 C 16.121094 10.945312 21.847656 7.59375 24.207031 10.808594 C 24.207031 10.808594 25.121094 10.777344 26.792969 9.878906 C 26.792969 9.878906 26.394531 11.148438 25.109375 11.992188 C 25.109375 11.992188 26.085938 11.984375 27.265625 11.457031 C 27.265625 11.457031 26.523438 12.664062 25.367188 13.472656 C 25.367188 13.472656 25.339844 15.285156 25.070312 16.414062 C 24.800781 17.546875 23.902344 20.691406 21.207031 22.902344 C 18.507812 25.109375 15.21875 25.597656 13.359375 25.46875 C 11.496094 25.339844 9.210938 24.636719 7.734375 23.722656 C 7.734375 23.722656 11.109375 24.082031 13.601562 22.027344 C 13.601562 22.027344 11.085938 22.144531 9.890625 19.242188 C 9.890625 19.242188 10.75 19.394531 11.675781 19.136719 C 11.675781 19.136719 8.503906 18.558594 8.464844 15.144531 C 8.464844 15.144531 9.503906 15.65625 10.277344 15.605469 C 10.277344 15.605469 7.246094 13.292969 9.09375 10.300781 C 9.09375 10.300781 12.128906 14.324219 17.390625 14.46875 Z M 17.390625 14.46875 "/>
</g>
</svg>
