<?xml version="1.0" encoding="UTF-8"?>
<svg xmlns="http://www.w3.org/2000/svg" xmlns:xlink="http://www.w3.org/1999/xlink" width="20pt" height="20pt" viewBox="0 0 20 20" version="1.1">
<g id="surface1">
<path style=" stroke:none;fill-rule:nonzero;fill:rgb(0%,0%,0%);fill-opacity:1;" d="M 10 6.667969 C 10.921875 6.667969 11.667969 5.921875 11.667969 5 C 11.667969 4.078125 10.921875 3.332031 10 3.332031 C 9.078125 3.332031 8.332031 4.078125 8.332031 5 C 8.332031 5.921875 9.078125 6.667969 10 6.667969 Z M 10 8.332031 C 9.078125 8.332031 8.332031 9.078125 8.332031 10 C 8.332031 10.921875 9.078125 11.667969 10 11.667969 C 10.921875 11.667969 11.667969 10.921875 11.667969 10 C 11.667969 9.078125 10.921875 8.332031 10 8.332031 Z M 10 13.332031 C 9.078125 13.332031 8.332031 14.078125 8.332031 15 C 8.332031 15.921875 9.078125 16.667969 10 16.667969 C 10.921875 16.667969 11.667969 15.921875 11.667969 15 C 11.667969 14.078125 10.921875 13.332031 10 13.332031 Z M 10 13.332031 "/>
</g>
</svg>
