<?xml version="1.0" encoding="UTF-8"?>
<svg xmlns="http://www.w3.org/2000/svg" xmlns:xlink="http://www.w3.org/1999/xlink" width="15pt" height="15pt" viewBox="0 0 15 15" version="1.1">
<g id="surface1">
<path style=" stroke:none;fill-rule:nonzero;fill:rgb(30.196078%,30.196078%,30.196078%);fill-opacity:1;" d="M 7.5625 2.519531 L 7.5625 3.777344 C 8.257812 3.777344 8.816406 4.34375 8.816406 5.039062 L 10.082031 5.039062 C 10.082031 3.648438 8.953125 2.519531 7.5625 2.519531 Z M 7.5625 2.519531 "/>
<path style=" stroke:none;fill-rule:nonzero;fill:rgb(30.196078%,30.196078%,30.196078%);fill-opacity:1;" d="M 12.601562 11.339844 L 12.601562 5.039062 C 12.601562 2.253906 10.34375 0 7.5625 0 C 4.777344 0 2.519531 2.253906 2.519531 5.039062 L 2.519531 11.339844 L 1.261719 11.339844 L 1.261719 12.601562 L 5.667969 12.601562 L 5.667969 13.230469 C 5.667969 14.277344 6.515625 15.121094 7.5625 15.121094 C 8.605469 15.121094 9.449219 14.277344 9.449219 13.230469 L 9.449219 12.601562 L 13.859375 12.601562 L 13.859375 11.339844 Z M 8.191406 13.230469 C 8.191406 13.578125 7.90625 13.859375 7.5625 13.859375 C 7.214844 13.859375 6.929688 13.578125 6.929688 13.230469 L 6.929688 12.601562 L 8.191406 12.601562 Z M 11.339844 11.339844 L 3.777344 11.339844 L 3.777344 5.039062 C 3.777344 2.953125 5.472656 1.261719 7.5625 1.261719 C 9.652344 1.261719 11.339844 2.953125 11.339844 5.039062 Z M 11.339844 11.339844 "/>
</g>
</svg>
