<?xml version="1.0" encoding="UTF-8"?>
<svg xmlns="http://www.w3.org/2000/svg" xmlns:xlink="http://www.w3.org/1999/xlink" width="15pt" height="15pt" viewBox="0 0 15 15" version="1.1">
<g id="surface1">
<path style=" stroke:none;fill-rule:nonzero;fill:rgb(0.392157%,0.392157%,0.392157%);fill-opacity:1;" d="M 11.730469 5.296875 L 9.855469 3.421875 L 9.628906 3.644531 L 11.144531 5.144531 L 3.136719 5.128906 L 3.136719 7.363281 L 3.480469 7.363281 L 3.480469 5.460938 L 11.144531 5.460938 L 9.601562 6.988281 L 9.824219 7.199219 L 11.730469 5.308594 Z M 11.730469 5.296875 "/>
<path style=" stroke:none;fill-rule:nonzero;fill:rgb(0.392157%,0.392157%,0.392157%);fill-opacity:1;" d="M 3.136719 10.558594 L 5.011719 12.421875 L 5.234375 12.210938 L 3.71875 10.710938 L 11.386719 10.710938 L 11.386719 10.726562 L 11.730469 10.726562 L 11.730469 8.488281 L 11.386719 8.488281 L 11.386719 10.394531 L 3.71875 10.394531 L 5.265625 8.863281 L 5.054688 8.65625 L 3.136719 10.546875 L 3.148438 10.558594 Z M 3.136719 10.558594 "/>
</g>
</svg>
